HIERARCHY
ROOT Hips
{
	OFFSET 0.00000 0.00000 0.00000
	CHANNELS 6 Xposition Yposition Zposition Zrotation Yrotation Xrotation 
	JOINT LHipJoint
	{
		OFFSET 0 0 0
		CHANNELS 3 Zrotation Yrotation Xrotation
		JOINT LeftHip
		{
			OFFSET 1.58895 -1.83665 0.71753
			CHANNELS 3 Zrotation Yrotation Xrotation
			JOINT LeftKnee
			{
				OFFSET 2.50528 -6.88321 0.00000
				CHANNELS 3 Zrotation Yrotation Xrotation
				JOINT LeftAnkle
				{
					OFFSET 2.63244 -7.23257 0.00000
					CHANNELS 3 Zrotation Yrotation Xrotation
					JOINT LeftToe
					{
						OFFSET 0.23691 -0.65090 1.72750
						CHANNELS 3 Zrotation Yrotation Xrotation
						End Site
						{
							OFFSET 0.00000 -0.00000 0.92561
						}
					}
				}
			}
		}
	}
	JOINT RHipJoint
	{
		OFFSET 0 0 0
		CHANNELS 3 Zrotation Yrotation Xrotation
		JOINT RightHip
		{
			OFFSET -1.51435 -1.83665 0.71753
			CHANNELS 3 Zrotation Yrotation Xrotation
			JOINT RightKnee
			{
				OFFSET -2.54551 -6.99375 0.00000
				CHANNELS 3 Zrotation Yrotation Xrotation
				JOINT RightAnkle
				{
					OFFSET -2.66027 -7.30903 0.00000
					CHANNELS 3 Zrotation Yrotation Xrotation
					JOINT RightToe
					{
						OFFSET -0.22981 -0.63138 2.03959
						CHANNELS 3 Zrotation Yrotation Xrotation
						End Site
						{
							OFFSET -0.00000 -0.00000 1.07060
						}
					}
				}
			}
		}
	}
	JOINT lowerback
	{
		OFFSET 0 0 0
		CHANNELS 3 Zrotation Yrotation Xrotation
		JOINT Chest
		{
			OFFSET -0.02651 1.86275 -0.11152
			CHANNELS 3 Zrotation Yrotation Xrotation
			JOINT Chest2
			{
				OFFSET 0.01019 1.86224 0.04087
				CHANNELS 3 Zrotation Yrotation Xrotation
				JOINT lowerneck
				{
					OFFSET 0 0 0
					CHANNELS 3 Zrotation Yrotation Xrotation
					JOINT Neck
					{
						OFFSET -0.01926 1.80512 0.08867
						CHANNELS 3 Zrotation Yrotation Xrotation
						JOINT Head
						{
							OFFSET 0.05516 1.76451 -0.38475
							CHANNELS 3 Zrotation Yrotation Xrotation
							End Site
							{
								OFFSET 0.01592 1.82587 -0.14001
							}
						}
					}
				}
				JOINT LeftCollar
				{
					OFFSET 0 0 0
					CHANNELS 3 Zrotation Yrotation Xrotation
					JOINT LeftShoulder
					{
						OFFSET 3.47116 1.51376 0.14491
CHANNELS 3 Zrotation Xrotation Yrotation
						JOINT LeftElbow
						{
OFFSET 0 -4.780950 0.000000
CHANNELS 3 Zrotation Xrotation Yrotation
							JOINT LeftWrist
							{
OFFSET 0 -3.586150 -0.000000
CHANNELS 3 Zrotation Xrotation Yrotation
								JOINT lhand
								{
									OFFSET 0 0 0
CHANNELS 3 Zrotation Xrotation Yrotation
									JOINT LFingers
									{
OFFSET 0 -0.659810 0.000000
CHANNELS 3 Zrotation Xrotation Yrotation
										End Site
										{
OFFSET 0 -0.531960 0.000000
										}
									}
								}
								JOINT LThumb
								{
OFFSET 0 0.000000 0.000000
CHANNELS 3 Zrotation Xrotation Yrotation
									End Site
									{
OFFSET 0 -0.540080 0.540080
									}
								}
							}
						}
					}
				}
				JOINT RightCollar
				{
					OFFSET 0 0 0
					CHANNELS 3 Zrotation Yrotation Xrotation
					JOINT RightShoulder
					{
						OFFSET -3.31725 1.61216 0.35156
CHANNELS 3 Zrotation Xrotation Yrotation
						JOINT RightElbow
						{
OFFSET 0 -4.489130 0.000000
CHANNELS 3 Zrotation Xrotation Yrotation
							JOINT RightWrist
							{
OFFSET 0 -3.705100 0.000000
CHANNELS 3 Zrotation Xrotation Yrotation
								JOINT rhand
								{
									OFFSET 0 0 0
CHANNELS 3 Zrotation Xrotation Yrotation
									JOINT RFingers
									{
OFFSET 0 -0.449140 0.000000
CHANNELS 3 Zrotation Xrotation Yrotation
										End Site
										{
OFFSET 0 -0.362110 0.000000
										}
									}
								}
								JOINT RThumb
								{
OFFSET 0 0.000000 0.000000
CHANNELS 3 Zrotation Xrotation Yrotation
									End Site
									{
OFFSET 0 -0.367630 0.367630
									}
								}
							}
						}
					}
				}
			}
		}
	}
}
MOTION
Frames: 11
Frame Time: 0.008333333333333333
-0.531822 18.632818 5.904100 -1.703991 11.524155 -2.070270 0.000000 0.000000 0.000000 -13.024270 -8.837951 -2.505195 1.692226 8.193270 23.302683 1.123552 -3.715925 -19.143359 8.766087 -16.654858 -55.277693 0.000000 0.000000 0.000000 0.000000 0.000000 0.000000 0.000000 0.000000 0.000000 0.000000 0.000000 0.000000 0.000000 0.000000 0.000000 6.364263 4.741643 4.236821 2.392460 6.879883 -2.994364 -1.608156 3.227160 -5.046538 -0.822352 -4.731429 -9.757343 -9.219701 -5.099334 10.992515 -3.066521 -3.121016 4.681856 0.000000 0.000000 0.000000 1.463996 19.190668 -36.361233 34.190504 -44.225364 14.245752 10.414328 -1.731443 23.456605 0.000000 0.000000 0.000000 -7.125000 0.000000 0.000000 -11.608487 6.575451 -10.424462 0.000000 0.000000 0.000000 -52.215052 -46.777860 15.903229 -157.408922 -33.638683 -113.089505 -17.977450 -8.083722 13.572609 0.000000 0.000000 0.000000 7.125000 0.000000 0.000000 8.649029 44.049597 0.204533
-0.533033 18.633615 5.903464 -1.763793 11.594363 -2.049869 0.000000 0.000000 0.000000 -12.958003 -8.933145 -2.541043 1.694963 8.199463 23.321685 1.125905 -3.722853 -19.163266 8.758415 -16.649717 -55.250972 0.000000 0.000000 0.000000 0.000000 0.000000 0.000000 0.000000 0.000000 0.000000 0.000000 0.000000 0.000000 0.000000 0.000000 0.000000 6.271804 4.724551 4.063088 2.496404 6.832354 -2.862502 -1.425356 3.218715 -4.834903 -0.956100 -4.708373 -9.875792 -9.199641 -5.045188 10.988583 -3.039350 -3.100851 4.707930 0.000000 0.000000 0.000000 1.301341 19.055584 -36.071780 33.969189 -44.061692 14.091669 10.385720 -1.732291 23.868780 0.000000 0.000000 0.000000 -7.125000 0.000000 0.000000 -11.637154 6.171764 -10.543678 0.000000 0.000000 0.000000 -52.574146 -46.923027 15.578286 -157.391351 -33.658035 -113.079872 -17.896113 -8.431266 13.420697 0.000000 0.000000 0.000000 7.125000 0.000000 0.000000 8.688518 43.883859 0.241298
-0.533497 18.634129 5.902379 -1.793029 11.648945 -2.026746 0.000000 0.000000 0.000000 -12.928095 -9.017435 -2.564792 1.696258 8.202413 23.330639 1.126829 -3.724887 -19.170702 8.752682 -16.645932 -55.230839 0.000000 0.000000 0.000000 0.000000 0.000000 0.000000 0.000000 0.000000 0.000000 0.000000 0.000000 0.000000 0.000000 0.000000 0.000000 6.062256 4.682873 3.658404 2.658557 6.717031 -2.563719 -1.086301 3.192526 -4.341012 -1.047533 -4.660009 -10.103155 -9.231506 -4.961485 10.858254 -3.033260 -3.066398 4.712187 0.000000 0.000000 0.000000 0.998997 18.636087 -35.521241 33.507594 -43.715430 13.772035 10.478254 -1.862124 25.128538 0.000000 0.000000 0.000000 -7.125000 0.000000 0.000000 -11.622265 4.918635 -10.811097 0.000000 0.000000 0.000000 -53.220881 -47.320667 14.994914 -157.360187 -33.692542 -113.062563 -17.726099 -8.740292 13.339174 0.000000 0.000000 0.000000 7.125000 0.000000 0.000000 8.823501 43.781020 0.267768
-0.533756 18.634717 5.900650 -1.781003 11.713482 -1.996569 0.000000 0.000000 0.000000 -12.938049 -9.071954 -2.597489 1.696444 8.202887 23.331958 1.124135 -3.751287 -19.142888 8.758509 -16.649805 -55.251233 0.000000 0.000000 0.000000 0.000000 0.000000 0.000000 0.000000 0.000000 0.000000 0.000000 0.000000 0.000000 0.000000 0.000000 0.000000 5.905244 4.657618 3.472138 2.723514 6.651528 -2.413660 -0.906246 3.176250 -4.106510 -1.133199 -4.646390 -10.231414 -9.183725 -4.932453 10.824550 -3.006207 -3.054225 4.728641 0.000000 0.000000 0.000000 0.870228 18.417167 -35.196510 33.211863 -43.492164 13.567719 10.566357 -1.954831 25.686487 0.000000 0.000000 0.000000 -7.125000 0.000000 0.000000 -11.587309 4.358117 -10.903000 0.000000 0.000000 0.000000 -53.587666 -47.511346 14.675859 -157.352225 -33.701350 -113.058125 -17.668472 -8.725629 13.406377 0.000000 0.000000 0.000000 7.125000 0.000000 0.000000 8.890517 43.843777 0.255865
-0.534169 18.635330 5.898310 -1.738817 11.788497 -1.954961 0.000000 0.000000 0.000000 -12.974220 -9.107713 -2.649497 1.696146 8.202216 23.329925 1.119273 -3.795182 -19.093738 8.769747 -16.657226 -55.290461 0.000000 0.000000 0.000000 0.000000 0.000000 0.000000 0.000000 0.000000 0.000000 0.000000 0.000000 0.000000 0.000000 0.000000 0.000000 5.820511 4.684170 3.472155 2.661195 6.679558 -2.410233 -0.925518 3.191883 -4.102843 -1.100378 -4.696552 -10.223637 -9.099185 -5.014083 10.856550 -2.990968 -3.088355 4.734478 0.000000 0.000000 0.000000 1.018709 18.379656 -35.186561 33.062297 -43.377700 13.464898 10.530224 -1.924552 25.649759 0.000000 0.000000 0.000000 -7.125000 0.000000 0.000000 -11.607668 4.398558 -10.914003 0.000000 0.000000 0.000000 -53.656205 -47.416864 14.554751 -157.374064 -33.677208 -113.070215 -17.715647 -8.485299 13.584493 0.000000 0.000000 0.000000 7.125000 0.000000 0.000000 8.888174 44.032253 0.214122
-0.534575 18.635749 5.895782 -1.690049 11.854467 -1.910548 0.000000 0.000000 0.000000 -13.017347 -9.144302 -2.704999 1.695826 8.201427 23.327632 1.115428 -3.830488 -19.054957 8.773484 -16.659673 -55.303370 0.000000 0.000000 0.000000 0.000000 0.000000 0.000000 0.000000 0.000000 0.000000 0.000000 0.000000 0.000000 0.000000 0.000000 0.000000 5.780143 4.780293 3.484958 2.499606 6.801396 -2.441133 -1.078043 3.249926 -4.120032 -0.807310 -4.810284 -10.131377 -9.082657 -5.220649 10.852588 -3.042231 -3.174944 4.699078 0.000000 0.000000 0.000000 1.437074 18.352476 -35.407721 32.914362 -43.264024 13.363365 10.389692 -1.769460 25.645429 0.000000 0.000000 0.000000 -7.125000 0.000000 0.000000 -11.692172 4.419333 -10.992352 0.000000 0.000000 0.000000 -53.599341 -47.128479 14.359506 -157.424124 -33.621806 -113.097922 -17.696393 -8.332592 13.745072 0.000000 0.000000 0.000000 7.125000 0.000000 0.000000 8.942086 44.195105 0.179160
-0.534412 18.635900 5.893680 -1.660271 11.889483 -1.884210 0.000000 0.000000 0.000000 -13.047910 -9.182356 -2.734007 1.695633 8.200988 23.326197 1.114402 -3.842357 -19.044418 8.764710 -16.653877 -55.272897 0.000000 0.000000 0.000000 0.000000 0.000000 0.000000 0.000000 0.000000 0.000000 0.000000 0.000000 0.000000 0.000000 0.000000 0.000000 5.806864 4.927372 3.535581 2.269434 6.996451 -2.501297 -1.345668 3.339648 -4.168612 -0.277174 -4.959706 -9.996260 -9.157123 -5.504205 10.828700 -3.161824 -3.294264 4.636013 0.000000 0.000000 0.000000 2.060645 18.366643 -35.802365 32.802491 -43.177612 13.286725 10.307583 -1.537384 25.620098 0.000000 0.000000 0.000000 -7.125000 0.000000 0.000000 -11.740710 4.453831 -11.032328 0.000000 0.000000 0.000000 -53.424283 -46.701622 14.075708 -157.503199 -33.533997 -113.141718 -17.499601 -8.463568 13.760153 0.000000 0.000000 0.000000 7.125000 0.000000 0.000000 9.123424 44.188215 0.184377
-0.533721 18.635900 5.891953 -1.676498 11.894834 -1.874888 0.000000 0.000000 0.000000 -13.028404 -9.182011 -2.758347 1.695892 8.201679 23.328528 1.112848 -3.861604 -19.027329 8.765573 -16.654481 -55.276004 0.000000 0.000000 0.000000 0.000000 0.000000 0.000000 0.000000 0.000000 0.000000 0.000000 0.000000 0.000000 0.000000 0.000000 0.000000 5.850451 5.005483 3.594186 2.144370 7.104166 -2.534958 -1.509917 3.387810 -4.209437 0.070830 -5.037299 -9.950516 -9.249734 -5.654644 10.818515 -3.252882 -3.358997 4.603215 0.000000 0.000000 0.000000 2.400968 18.377950 -35.907060 32.707636 -43.104076 13.221906 10.354450 -1.355528 25.580913 0.000000 0.000000 0.000000 -7.125000 0.000000 0.000000 -11.711019 4.486974 -10.995733 0.000000 0.000000 0.000000 -53.295680 -46.494995 13.933986 -157.565861 -33.464258 -113.176329 -17.457309 -8.565932 13.721399 0.000000 0.000000 0.000000 7.125000 0.000000 0.000000 9.152597 44.143678 0.195166
-0.532947 18.635398 5.890980 -1.720660 11.876432 -1.875771 0.000000 0.000000 0.000000 -12.976362 -9.161843 -2.775912 1.696904 8.203875 23.335124 1.112215 -3.892227 -19.017432 8.774633 -16.660522 -55.307465 0.000000 0.000000 0.000000 0.000000 0.000000 0.000000 0.000000 0.000000 0.000000 0.000000 0.000000 0.000000 0.000000 0.000000 0.000000 5.821104 4.924010 3.603946 2.252828 6.996511 -2.483224 -1.375908 3.338615 -4.184605 -0.100232 -4.972621 -10.036503 -9.295507 -5.532837 10.805320 -3.235208 -3.310231 4.624448 0.000000 0.000000 0.000000 2.099776 18.328702 -35.374004 32.590699 -43.013059 13.142032 10.309731 -1.209720 25.578947 0.000000 0.000000 0.000000 -7.125000 0.000000 0.000000 -11.737868 4.494106 -11.020528 0.000000 0.000000 0.000000 -53.383452 -46.776570 14.054306 -157.589379 -33.437928 -113.189277 -17.563728 -8.504698 13.818309 0.000000 0.000000 0.000000 7.125000 0.000000 0.000000 9.078894 44.255297 0.168401
-0.531681 18.635020 5.889471 -1.748436 11.861468 -1.869705 0.000000 0.000000 0.000000 -12.946364 -9.177766 -2.786825 1.697799 8.205909 23.341366 1.113219 -3.913279 -19.023504 8.761291 -16.651627 -55.260858 0.000000 0.000000 0.000000 0.000000 0.000000 0.000000 0.000000 0.000000 0.000000 0.000000 0.000000 0.000000 0.000000 0.000000 0.000000 5.791597 4.842547 3.615083 2.347688 6.888692 -2.437435 -1.256086 3.288829 -4.164671 -0.323685 -4.909906 -10.094521 -9.268855 -5.415836 10.780766 -3.185663 -3.260498 4.640761 0.000000 0.000000 0.000000 1.837344 18.298365 -34.919071 32.518386 -42.956528 13.092734 10.294335 -1.186847 25.573274 0.000000 0.000000 0.000000 -7.125000 0.000000 0.000000 -11.746937 4.501386 -11.027768 0.000000 0.000000 0.000000 -53.517517 -47.054851 14.091081 -157.592131 -33.434879 -113.190761 -17.569691 -8.511476 13.917593 0.000000 0.000000 0.000000 7.125000 0.000000 0.000000 9.096547 44.357842 0.145403
-0.529793 18.634900 5.887493 -1.760132 11.856600 -1.852710 0.000000 0.000000 0.000000 -12.936675 -9.203347 -2.807091 1.698044 8.206600 23.343331 1.113587 -3.913724 -19.027069 8.750299 -16.644318 -55.222560 0.000000 0.000000 0.000000 0.000000 0.000000 0.000000 0.000000 0.000000 0.000000 0.000000 0.000000 0.000000 0.000000 0.000000 0.000000 5.819982 4.871367 3.633884 2.279532 6.927933 -2.450499 -1.345643 3.305738 -4.174784 -0.240401 -4.943735 -10.041381 -9.207554 -5.485064 10.765111 -3.181853 -3.285877 4.622439 0.000000 0.000000 0.000000 2.057644 18.323481 -34.985415 32.515185 -42.954046 13.090590 10.340265 -1.308072 25.552278 0.000000 0.000000 0.000000 -7.125000 0.000000 0.000000 -11.718513 4.516771 -10.996407 0.000000 0.000000 0.000000 -53.552997 -46.988114 13.906690 -157.595945 -33.430649 -113.192875 -17.572877 -8.506297 13.981199 0.000000 0.000000 0.000000 7.125000 0.000000 0.000000 9.108487 44.423512 0.130711
